<svg width="550" height="550" viewBox="0 0 550 550" fill="none" xmlns="http://www.w3.org/2000/svg">
<path fill-rule="evenodd" clip-rule="evenodd" d="M350 50C350 22.3857 327.614 0 300 0H250V450V500C250 527.614 272.386 550 300 550H350H500C527.614 550 550 527.614 550 500C550 472.386 527.614 450 500 450H375C361.193 450 350 438.807 350 425V50Z" fill="#246A73"/>
<path fill-rule="evenodd" clip-rule="evenodd" d="M250 0C277.614 0 300 22.3858 300 50V100V400C300 482.843 232.843 550 150 550C67.1573 550 0 482.843 0 400C0 372.386 22.3858 350 50 350C77.6142 350 100 372.386 100 400C100 427.614 122.386 450 150 450C177.614 450 200 427.614 200 400V100H150C122.386 100 100 77.6142 100 50C100 22.3858 122.386 0 150 2.18557e-06L249.974 6.55558e-06L250 0Z" fill="#3E0071"/>
<path fill-rule="evenodd" clip-rule="evenodd" d="M300 50C300 22.3858 277.614 0 250 0V450V500C250 503.693 250.4 507.292 251.16 510.756C281.173 483.328 300 443.863 300 400V100V50Z" fill="#1F71B8"/>
</svg>
