<svg width="500" height="550" viewBox="0 0 500 550" fill="none" xmlns="http://www.w3.org/2000/svg">
<path fill-rule="evenodd" clip-rule="evenodd" d="M300 50C300 22.3857 277.614 0 250 0C222.386 0 200 22.3858 200 50V450V500C200 527.614 222.386 550 250 550H450C477.614 550 500 527.614 500 500C500 472.386 477.614 450 450 450H325C311.193 450 300 438.807 300 425V50Z" fill="#246A73"/>
<path fill-rule="evenodd" clip-rule="evenodd" d="M250 0C277.614 0 300 22.3858 300 50V100V400C300 482.843 232.843 550 150 550C67.1573 550 0 482.843 0 400C0 372.386 22.3858 350 50 350C77.6142 350 100 372.386 100 400C100 427.614 122.386 450 150 450C177.614 450 200 427.614 200 400V100H150C122.386 100 100 77.6142 100 50C100 22.3858 122.386 0 150 2.18557e-06L249.974 6.55558e-06L250 0Z" fill="#3E0071"/>
<path fill-rule="evenodd" clip-rule="evenodd" d="M300 50C300 22.3857 277.614 0 250 0C222.386 0 200 22.3857 200 50V100V400V450V500C200 513.82 205.607 526.331 214.671 535.381C265.141 511.229 300 459.685 300 400V100V50Z" fill="#1F71B8"/>
</svg>
