<svg width="525" height="550" viewBox="0 0 525 550" fill="none" xmlns="http://www.w3.org/2000/svg">
<path fill-rule="evenodd" clip-rule="evenodd" d="M325 50C325 22.3857 302.614 0 275 0H225V450V500C225 527.614 247.386 550 275 550H325H475C502.614 550 525 527.614 525 500C525 472.386 502.614 450 475 450H350C336.193 450 325 438.807 325 425V50Z" fill="#FAFF00"/>
<path fill-rule="evenodd" clip-rule="evenodd" d="M250 0C277.614 0 300 22.3858 300 50V100V400C300 482.843 232.843 550 150 550C67.1573 550 0 482.843 0 400C0 372.386 22.3858 350 50 350C77.6142 350 100 372.386 100 400C100 427.614 122.386 450 150 450C177.614 450 200 427.614 200 400V100H150C122.386 100 100 77.6142 100 50C100 22.3858 122.386 0 150 2.18557e-06L249.974 6.55558e-06L250 0Z" fill="#3E0071"/>
<path fill-rule="evenodd" clip-rule="evenodd" d="M325 50C325 22.3857 302.614 0 275 0H225V450V500C225 527.614 247.386 550 275 550H475C502.614 550 525 527.614 525 500C525 472.386 502.614 450 475 450H350C336.193 450 325 438.807 325 425V50Z" fill="#00E2FF" fill-opacity="0.5"/>
</svg>
