<svg width="3362" height="4359" viewBox="0 0 3362 4359" fill="none" xmlns="http://www.w3.org/2000/svg">
<path d="M2457.49 2510.69C1223.98 3744.19 168.003 4626 129.989 4283.69C95.5138 3973.24 2794.78 1682.6 2724.49 1419.68C2621.5 1034.5 233.933 1364 36.9888 1131.19C-180.997 873.5 592.484 818.186 1620.99 818.187C3577.48 818.188 3731.49 1236.69 2457.49 2510.69Z" fill="#007156" fill-opacity="0.5"/>
<path d="M903.828 1847.38C2137.34 613.869 3193.31 -267.938 3231.33 74.3765C3265.8 384.82 566.538 2675.47 636.832 2938.38C739.814 3323.56 3127.38 2994.06 3324.33 3226.88C3542.31 3484.56 2768.83 3539.88 1740.33 3539.88C-216.167 3539.87 -370.172 3121.38 903.828 1847.38Z" fill="#3E0071" fill-opacity="0.5"/>
</svg>
